<svg width="1369" height="373" viewBox="0 0 1369 373" fill="none" xmlns="http://www.w3.org/2000/svg">
  <path opacity="0.15"
    d="M1303.19 147.88C1336.7 184.97 1363.88 249.451 1313.8 294.973C1308.63 299.666 1260.18 342.248 1187.3 336.96C1098.54 330.52 1080.34 260.812 982.381 242.716C876.298 223.119 814.037 289.425 762.231 269.056C700.971 244.97 693.451 115.071 804.331 59.3957C937.906 -7.67449 1213.08 48.1512 1303.19 147.88Z"
    fill="#EBC136" />
  <path opacity="0.15"
    d="M468.245 339.639C499.307 320.569 533.155 282.148 512.134 243.285C509.966 239.278 489.262 202.654 440.679 193.834C381.505 183.09 352.162 226.52 284.092 221.996C210.375 217.096 186.688 162.301 147.971 167.114C102.189 172.806 64.6268 258.21 122.514 314.149C192.248 381.538 384.723 390.917 468.245 339.639Z"
    fill="#EBC136" />
  <path opacity="0.15"
    d="M1362.62 158.365C1380.76 142.046 1400.7 109.494 1388.95 77.1918C1387.74 73.8615 1376.14 43.4303 1348.17 36.5947C1314.09 28.2688 1296.7 64.9645 1257.42 61.9464C1214.89 58.678 1201.75 13.0665 1179.34 17.5345C1152.83 22.8178 1130.28 94.751 1163.15 140.934C1202.76 196.569 1313.86 202.244 1362.62 158.365Z"
    fill="#8047F8" />
  <path opacity="0.15"
    d="M175.937 46.8915C188.507 68.6161 200.932 110.056 188.695 147.492C187.433 151.351 175.5 186.558 153.055 191.502C125.717 197.524 115.675 151.405 84.7918 150.442C51.347 149.4 36.7653 202.665 19.7319 194.678C-0.409609 185.234 -11.117 96.1753 18.8998 44.5305C55.0604 -17.6848 142.139 -11.5237 175.937 46.8915Z"
    fill="#EBC136" />
  <path opacity="0.15"
    d="M743.922 309.538C765.564 290.513 788.249 253.904 770.967 220.187C769.185 216.71 752.248 184.989 716.43 179.962C672.805 173.84 653.654 214.687 603.868 214.695C549.953 214.704 529.92 166.808 501.979 173.46C468.939 181.327 445.942 260.444 490.931 307.321C545.129 363.792 685.728 360.695 743.922 309.538Z"
    fill="#8047F8" />
</svg>
  